# Blender v2.78 (sub 0) OBJ File: ''
# www.blender.org
mtllib EnemyCol_1.mtl
o pPlane1
v 2.988997 0.773656 -0.974074
v 2.868649 0.989256 -0.974074
v 2.868649 0.989255 0.974074
v 2.988997 0.773656 0.974074
v 2.733931 1.216664 -0.974074
v 2.733931 1.216664 0.974074
v 2.148360 1.341456 -0.974074
v 2.148360 1.341456 0.974074
v 1.812376 1.533445 -0.974074
v 1.812376 1.533445 0.974074
v 1.409209 1.456649 -0.974074
v 1.409209 1.456649 0.974074
v 1.236418 1.312658 -0.974074
v 1.236418 1.312658 0.974074
v 0.497252 1.399053 -0.974074
v 0.497252 1.399053 0.974074
v 0.190077 1.197465 -0.974074
v 0.190077 1.197465 0.974074
v -0.021104 0.871084 -0.974074
v -0.021104 0.871084 0.974074
v -0.952257 0.928681 -0.974074
v -0.952257 0.928681 0.974074
v -1.249834 1.168666 -0.974074
v -1.249834 1.168666 0.974074
v -1.345827 1.360655 -0.974074
v -1.345827 1.360655 0.974074
v -1.633821 1.389453 -0.974074
v -1.633821 1.389453 0.974074
v -2.363374 0.976677 -0.974074
v -2.363374 0.976677 0.974074
v -2.610050 0.856901 -0.974074
v -2.610050 0.856900 0.974074
v -2.996934 0.775089 -0.974074
v -2.996934 0.775089 0.974074
vt 0.0000 0.0000
vt 1.0000 0.0000
vt 1.0000 1.0000
vt 0.0000 1.0000
vt 0.0000 0.0000
vt 1.0000 1.0000
vt 0.0000 1.0000
vt 0.0000 0.0000
vt 1.0000 0.0000
vt 1.0000 1.0000
vt 0.0000 1.0000
vt 0.0000 0.0000
vt 1.0000 0.0000
vt 1.0000 1.0000
vt 0.0000 1.0000
vt 0.0000 0.0000
vt 1.0000 0.0000
vt 1.0000 1.0000
vt 0.0000 1.0000
vt 0.0000 0.0000
vt 1.0000 0.0000
vt 1.0000 1.0000
vt 0.0000 1.0000
vt 0.0000 0.0000
vt 1.0000 0.0000
vt 1.0000 1.0000
vt 0.0000 1.0000
vt 0.0000 0.0000
vt 1.0000 0.0000
vt 1.0000 1.0000
vt 0.0000 1.0000
vt 0.0000 0.0000
vt 1.0000 0.0000
vt 1.0000 1.0000
vt 0.0000 1.0000
vt 0.0000 0.0000
vt 1.0000 0.0000
vt 1.0000 1.0000
vt 0.0000 1.0000
vt 1.0000 0.0000
vt 0.0000 0.0000
vt 1.0000 1.0000
vt 0.0000 1.0000
vt 0.0000 0.0000
vt 1.0000 0.0000
vt 1.0000 1.0000
vt 0.0000 1.0000
vt 0.0000 0.0000
vt 1.0000 0.0000
vt 1.0000 1.0000
vt 0.0000 1.0000
vt 0.0000 0.0000
vt 1.0000 0.0000
vt 1.0000 1.0000
vt 0.0000 1.0000
vt 0.0000 0.0000
vt 1.0000 0.0000
vt 1.0000 1.0000
vt 0.0000 1.0000
vn 0.8732 0.4874 0.0000
vn 0.8604 0.5097 0.0000
vn 0.2084 0.9780 0.0000
vn 0.4961 0.8682 0.0000
vn -0.1871 0.9823 0.0000
vn -0.6402 0.7682 0.0000
vn 0.1161 0.9932 0.0000
vn -0.5487 0.8360 0.0000
vn -0.8396 0.5432 0.0000
vn 0.0617 0.9981 0.0000
vn 0.6278 0.7784 0.0000
vn 0.8944 0.4472 0.0000
vn 0.0995 0.9950 0.0000
vn -0.4924 0.8703 0.0000
vn -0.4368 0.8996 0.0000
vn -0.2069 0.9784 0.0000
usemtl initialShadingGroup
s 1
f 1/1/1 2/2/1 3/3/1 4/4/1
f 3/5/2 2/2/2 5/6/2 6/7/2
f 6/8/3 5/9/3 7/10/3 8/11/3
f 8/12/4 7/13/4 9/14/4 10/15/4
f 10/16/5 9/17/5 11/18/5 12/19/5
f 12/20/6 11/21/6 13/22/6 14/23/6
f 14/24/7 13/25/7 15/26/7 16/27/7
f 16/28/8 15/29/8 17/30/8 18/31/8
f 18/32/9 17/33/9 19/34/9 20/35/9
f 20/36/10 19/37/10 21/38/10 22/39/10
f 21/38/11 23/40/11 24/41/11 22/39/11
f 24/41/12 23/40/12 25/42/12 26/43/12
f 26/44/13 25/45/13 27/46/13 28/47/13
f 28/48/14 27/49/14 29/50/14 30/51/14
f 30/52/15 29/53/15 31/54/15 32/55/15
f 32/56/16 31/57/16 33/58/16 34/59/16
