# Blender v2.78 (sub 0) OBJ File: ''
# www.blender.org
mtllib EnemyCol_5.mtl
o pPlane1
v 3.081200 -0.282038 -0.234567
v 3.012947 0.199194 -0.234567
v 3.012947 0.199194 1.772839
v 3.081200 -0.282038 1.772839
v 2.765236 0.380209 -0.234567
v 2.765236 0.380209 1.772839
v 2.565163 0.818472 -0.234567
v 2.565163 0.818471 1.772839
v 2.250755 1.037596 -0.234567
v 2.250755 1.037595 1.772839
v 2.136436 1.313887 -0.234566
v 2.136436 1.313886 1.772840
v 2.088799 1.437742 -0.234566
v 2.088799 1.437742 1.772840
v 1.593376 1.504438 -0.234566
v 1.593376 1.504438 1.772840
v 1.250389 1.352003 -0.234566
v 1.250389 1.352003 1.772840
v 1.078896 1.118347 -0.234566
v 1.078896 1.118347 1.772840
v 0.955040 0.980436 -0.234567
v 0.955040 0.980436 1.772839
v 0.631111 0.789885 -0.234567
v 0.631111 0.789884 1.772839
v 0.335762 0.446905 -0.234567
v 0.335762 0.446905 1.772839
v -0.054863 0.485014 -0.234567
v -0.054863 0.485014 1.772839
v -0.293037 0.456853 -0.234567
v -0.293037 0.456853 1.772839
v -0.388313 0.446905 -0.234567
v -0.388313 0.446905 1.772839
v -0.836098 0.446905 -0.234567
v -0.836098 0.446905 1.772839
v -0.931374 0.472805 -0.234567
v -0.931374 0.472805 1.772839
v -1.017113 0.523123 -0.234567
v -1.017113 0.523122 1.772839
v -1.636391 0.923269 -0.234567
v -1.636391 0.923269 1.772839
v -1.950798 0.931803 -0.234567
v -1.950798 0.931802 1.772839
v -2.055595 0.885160 -0.234567
v -2.055595 0.885160 1.772839
v -2.303307 0.551702 -0.234567
v -2.303307 0.551702 1.772839
v -2.312843 -0.562998 -0.234567
v -2.312843 -0.562998 1.772839
vt 0.0000 0.0000
vt 1.0000 0.0000
vt 1.0000 1.0000
vt 0.0000 1.0000
vt 0.0000 0.0000
vt 1.0000 0.0000
vt 1.0000 1.0000
vt 0.0000 1.0000
vt 0.0000 0.0000
vt 1.0000 0.0000
vt 1.0000 1.0000
vt 0.0000 1.0000
vt 1.0000 0.0000
vt 0.0000 0.0000
vt 1.0000 1.0000
vt 0.0000 1.0000
vt 0.0000 0.0000
vt 1.0000 0.0000
vt 1.0000 1.0000
vt 0.0000 1.0000
vt 0.0000 0.0000
vt 1.0000 0.0000
vt 1.0000 1.0000
vt 0.0000 1.0000
vt 0.0000 0.0000
vt 1.0000 0.0000
vt 1.0000 1.0000
vt 0.0000 1.0000
vt 0.0000 0.0000
vt 1.0000 0.0000
vt 1.0000 1.0000
vt 0.0000 1.0000
vt 0.0000 0.0000
vt 1.0000 0.0000
vt 1.0000 1.0000
vt 0.0000 1.0000
vt 0.0000 0.0000
vt 1.0000 0.0000
vt 1.0000 1.0000
vt 0.0000 1.0000
vt 0.0000 0.0000
vt 1.0000 0.0000
vt 1.0000 1.0000
vt 0.0000 1.0000
vt 0.0000 0.0000
vt 1.0000 0.0000
vt 1.0000 1.0000
vt 0.0000 1.0000
vt 0.0000 0.0000
vt 1.0000 0.0000
vt 1.0000 1.0000
vt 0.0000 1.0000
vt 0.0000 0.0000
vt 1.0000 0.0000
vt 1.0000 1.0000
vt 0.0000 1.0000
vt 0.0000 0.0000
vt 1.0000 0.0000
vt 1.0000 1.0000
vt 0.0000 1.0000
vt 0.0000 0.0000
vt 1.0000 0.0000
vt 1.0000 1.0000
vt 0.0000 1.0000
vt 0.0000 0.0000
vt 1.0000 0.0000
vt 1.0000 1.0000
vt 0.0000 1.0000
vt 0.0000 0.0000
vt 1.0000 0.0000
vt 1.0000 1.0000
vt 0.0000 1.0000
vt 0.0000 0.0000
vt 1.0000 0.0000
vt 1.0000 1.0000
vt 0.0000 1.0000
vt 0.0000 0.0000
vt 1.0000 0.0000
vt 1.0000 1.0000
vt 0.0000 1.0000
vt 0.0000 0.0000
vt 1.0000 0.0000
vt 1.0000 1.0000
vt 0.0000 1.0000
vn 0.9901 0.1404 0.0000
vn 0.5900 0.8074 0.0000
vn 0.9097 0.4153 0.0000
vn 0.5718 0.8204 0.0000
vn 0.9240 0.3823 0.0000
vn 0.9333 0.3590 0.0000
vn 0.1334 0.9911 0.0000
vn -0.4061 0.9138 0.0000
vn -0.8062 0.5917 0.0000
vn -0.7440 0.6682 0.0000
vn -0.5070 0.8619 0.0000
vn -0.7578 0.6525 0.0000
vn 0.0971 0.9953 0.0000
vn -0.1174 0.9931 0.0000
vn -0.1038 0.9946 0.0000
vn 0.0000 1.0000 0.0000
vn 0.2623 0.9650 0.0000
vn 0.5061 0.8624 0.0000
vn 0.5427 0.8399 0.0000
vn 0.0271 0.9996 0.0000
vn -0.4066 0.9136 0.0000
vn -0.8027 0.5963 0.0000
vn -1.0000 0.0086 0.0000
usemtl initialShadingGroup
s 1
f 1/1/1 2/2/1 3/3/1 4/4/1
f 6/5/2 3/3/2 2/2/2 5/6/2
f 6/5/3 5/6/3 7/7/3 8/8/3
f 8/9/4 7/10/4 9/11/4 10/12/4
f 10/12/5 9/11/5 11/13/5 12/14/5
f 12/14/6 11/13/6 13/15/6 14/16/6
f 14/17/7 13/18/7 15/19/7 16/20/7
f 16/21/8 15/22/8 17/23/8 18/24/8
f 18/25/9 17/26/9 19/27/9 20/28/9
f 20/29/10 19/30/10 21/31/10 22/32/10
f 22/33/11 21/34/11 23/35/11 24/36/11
f 24/37/12 23/38/12 25/39/12 26/40/12
f 26/41/13 25/42/13 27/43/13 28/44/13
f 28/45/14 27/46/14 29/47/14 30/48/14
f 30/49/15 29/50/15 31/51/15 32/52/15
f 32/53/16 31/54/16 33/55/16 34/56/16
f 34/57/17 33/58/17 35/59/17 36/60/17
f 36/61/18 35/62/18 37/63/18 38/64/18
f 38/65/19 37/66/19 39/67/19 40/68/19
f 40/69/20 39/70/20 41/71/20 42/72/20
f 42/73/21 41/74/21 43/75/21 44/76/21
f 44/77/22 43/78/22 45/79/22 46/80/22
f 46/81/23 45/82/23 47/83/23 48/84/23
