# Blender v2.78 (sub 0) OBJ File: ''
# www.blender.org
mtllib EnemyCol_4.mtl
o pPlane1
v 2.994675 0.053943 -0.981480
v 2.117355 0.354831 -0.981480
v 2.117355 0.354830 0.981482
v 2.994675 0.053941 0.981482
v 1.736847 0.954140 -0.981480
v 1.736847 0.954139 0.981482
v -0.232315 1.068294 -0.981480
v -0.232315 1.068294 0.981482
v -0.746017 1.001704 -0.981480
v -0.746017 1.001704 0.981482
v -1.082415 0.535059 -0.981480
v -1.082415 0.535059 0.981482
v -1.497528 0.202625 -0.981480
v -1.497528 0.202624 0.981482
v -1.602173 0.107497 -0.981480
v -1.602173 0.107496 0.981482
v -2.363205 0.297754 -0.981480
v -2.363205 0.297753 0.981482
v -2.962509 0.523109 -0.981480
v -2.962509 0.523109 0.981482
vt 0.0000 0.0000
vt 1.0000 0.0000
vt 1.0000 1.0000
vt 0.0000 1.0000
vt 1.0000 0.0000
vt 0.0000 0.0000
vt 1.0000 1.0000
vt 0.0000 1.0000
vt 0.0000 0.0000
vt 1.0000 0.0000
vt 1.0000 1.0000
vt 0.0000 1.0000
vt 0.0000 0.0000
vt 1.0000 0.0000
vt 1.0000 1.0000
vt 0.0000 1.0000
vt 0.0000 0.0000
vt 1.0000 0.0000
vt 1.0000 1.0000
vt 0.0000 1.0000
vt 0.0000 0.0000
vt 1.0000 0.0000
vt 1.0000 1.0000
vt 0.0000 1.0000
vt 0.0000 0.0000
vt 1.0000 0.0000
vt 1.0000 1.0000
vt 0.0000 1.0000
vt 0.0000 0.0000
vt 1.0000 0.0000
vt 1.0000 1.0000
vt 0.0000 1.0000
vn 0.3244 0.9459 0.0000
vn 0.8442 0.5360 0.0000
vn 0.0579 0.9983 0.0000
vn -0.1286 0.9917 0.0000
vn -0.8112 0.5848 0.0000
vn -0.6251 0.7806 0.0000
vn -0.6727 0.7400 0.0000
vn 0.2425 0.9701 0.0000
vn 0.3520 0.9360 0.0000
usemtl initialShadingGroup
s 1
f 1/1/1 2/2/1 3/3/1 4/4/1
f 3/3/2 2/2/2 5/5/2 6/6/2
f 6/6/3 5/5/3 7/7/3 8/8/3
f 8/9/4 7/10/4 9/11/4 10/12/4
f 10/13/5 9/14/5 11/15/5 12/16/5
f 12/17/6 11/18/6 13/19/6 14/20/6
f 14/21/7 13/22/7 15/23/7 16/24/7
f 16/25/8 15/26/8 17/27/8 18/28/8
f 18/29/9 17/30/9 19/31/9 20/32/9
