# This file uses meters as units for non-parametric coordinates.

mtllib Land5_Collider.mtl
g default
v -218.614243 -90.103053 -1.003703
v -218.682496 -89.621821 -1.003703
v -218.614243 -90.103053 1.003703
v -218.682496 -89.621821 1.003703
v -218.968317 -89.526548 -1.003703
v -218.968317 -89.526548 1.003703
v -218.930207 -89.440802 -1.003703
v -218.930207 -89.440802 1.003703
v -219.130281 -89.002544 -1.003703
v -219.130281 -89.002544 1.003703
v -219.444683 -88.783415 -1.003703
v -219.444683 -88.783415 1.003703
v -219.701922 -88.754833 -1.003703
v -219.701922 -88.754833 1.003703
v -219.559012 -88.507123 -1.003703
v -219.559012 -88.507123 1.003703
v -219.606648 -88.383267 -1.003703
v -219.606648 -88.383267 1.003703
v -220.102070 -88.316576 -1.003703
v -220.102070 -88.316576 1.003703
v -220.445054 -88.469013 -1.003703
v -220.445054 -88.469013 1.003703
v -220.616546 -88.869161 -1.003703
v -220.616546 -88.869161 1.003703
v -220.740401 -88.840579 -1.003703
v -220.740401 -88.840579 1.003703
v -221.064331 -89.031126 -1.003703
v -221.064331 -89.031126 1.003703
v -221.359679 -89.374110 -1.003703
v -221.359679 -89.374110 1.003703
v -221.750299 -89.336001 -1.003703
v -221.750299 -89.336001 1.003703
v -221.988483 -89.517020 -1.003703
v -221.988483 -89.517020 1.003703
v -222.083756 -89.374110 -1.003703
v -222.083756 -89.374110 1.003703
v -222.531541 -89.374110 -1.003703
v -222.531541 -89.374110 1.003703
v -222.626814 -89.459856 -1.003703
v -222.626814 -89.459856 1.003703
v -222.712561 -89.297892 -1.003703
v -222.712561 -89.297892 1.003703
v -223.331837 -88.897743 -1.003703
v -223.331837 -88.897743 1.003703
v -223.646239 -89.002544 -1.003703
v -223.646239 -89.002544 1.003703
v -223.751040 -88.935853 -1.003703
v -223.751040 -88.935853 1.003703
v -223.998751 -89.269310 -1.003703
v -223.998751 -89.269310 1.003703
v -224.008278 -90.384008 -1.003703
v -224.008278 -90.384008 1.003703
vt 0.000000 0.000000
vt 1.000000 0.000000
vt 0.000000 1.000000
vt 1.000000 1.000000
vt 0.000000 0.000000
vt 1.000000 0.000000
vt 1.000000 1.000000
vt 0.000000 1.000000
vt 0.000000 0.000000
vt 1.000000 0.000000
vt 1.000000 1.000000
vt 0.000000 1.000000
vt 0.000000 0.000000
vt 1.000000 0.000000
vt 1.000000 1.000000
vt 0.000000 1.000000
vt 0.000000 0.000000
vt 1.000000 0.000000
vt 1.000000 1.000000
vt 0.000000 1.000000
vt 0.000000 0.000000
vt 1.000000 0.000000
vt 1.000000 1.000000
vt 0.000000 1.000000
vt 0.000000 0.000000
vt 1.000000 0.000000
vt 1.000000 1.000000
vt 0.000000 1.000000
vt 0.000000 0.000000
vt 1.000000 0.000000
vt 1.000000 1.000000
vt 0.000000 1.000000
vt 0.000000 0.000000
vt 1.000000 0.000000
vt 1.000000 1.000000
vt 0.000000 1.000000
vt 0.000000 0.000000
vt 1.000000 0.000000
vt 1.000000 1.000000
vt 0.000000 1.000000
vt 0.000000 0.000000
vt 1.000000 0.000000
vt 1.000000 1.000000
vt 0.000000 1.000000
vt 0.000000 0.000000
vt 1.000000 0.000000
vt 1.000000 1.000000
vt 0.000000 1.000000
vt 0.000000 0.000000
vt 1.000000 0.000000
vt 1.000000 1.000000
vt 0.000000 1.000000
vt 0.000000 0.000000
vt 1.000000 0.000000
vt 1.000000 1.000000
vt 0.000000 1.000000
vt 0.000000 0.000000
vt 1.000000 0.000000
vt 1.000000 1.000000
vt 0.000000 1.000000
vt 0.000000 0.000000
vt 1.000000 0.000000
vt 1.000000 1.000000
vt 0.000000 1.000000
vt 0.000000 0.000000
vt 1.000000 0.000000
vt 1.000000 1.000000
vt 0.000000 1.000000
vt 0.000000 0.000000
vt 1.000000 0.000000
vt 1.000000 1.000000
vt 0.000000 1.000000
vt 0.000000 0.000000
vt 1.000000 0.000000
vt 1.000000 1.000000
vt 0.000000 1.000000
vt 0.000000 0.000000
vt 1.000000 0.000000
vt 1.000000 1.000000
vt 0.000000 1.000000
vt 0.000000 0.000000
vt 1.000000 0.000000
vt 1.000000 1.000000
vt 0.000000 1.000000
vt 0.000000 0.000000
vt 1.000000 0.000000
vt 1.000000 1.000000
vt 0.000000 1.000000
vt 0.000000 0.000000
vt 1.000000 0.000000
vt 1.000000 1.000000
vt 0.000000 1.000000
vt 0.000000 0.000000
vt 1.000000 0.000000
vt 1.000000 1.000000
vt 0.000000 1.000000
vt 0.000000 0.000000
vt 1.000000 0.000000
vt 1.000000 1.000000
vt 0.000000 1.000000
vn 0.990091 0.140424 0.000000
vn 0.990091 0.140424 0.000000
vn 0.990091 0.140424 0.000000
vn 0.990091 0.140424 0.000000
vn 0.316228 0.948683 0.000000
vn 0.316228 0.948683 0.000000
vn 0.316228 0.948683 0.000000
vn 0.316228 0.948683 0.000000
vn 0.913812 -0.406138 0.000000
vn 0.913812 -0.406138 0.000000
vn 0.913812 -0.406138 0.000000
vn 0.913812 -0.406138 0.000000
vn 0.909688 0.415292 0.000000
vn 0.909688 0.415292 0.000000
vn 0.909688 0.415292 0.000000
vn 0.909688 0.415292 0.000000
vn 0.571793 0.820398 0.000000
vn 0.571793 0.820398 0.000000
vn 0.571793 0.820398 0.000000
vn 0.571793 0.820398 0.000000
vn 0.110431 0.993884 0.000000
vn 0.110431 0.993884 0.000000
vn 0.110431 0.993884 0.000000
vn 0.110431 0.993884 0.000000
vn 0.866186 -0.499722 0.000000
vn 0.866186 -0.499722 0.000000
vn 0.866186 -0.499722 0.000000
vn 0.866186 -0.499722 0.000000
vn 0.933346 0.358979 0.000000
vn 0.933346 0.358979 0.000000
vn 0.933346 0.358979 0.000000
vn 0.933346 0.358979 0.000000
vn 0.133412 0.991061 0.000000
vn 0.133412 0.991061 0.000000
vn 0.133412 0.991061 0.000000
vn 0.133412 0.991061 0.000000
vn -0.406139 0.913812 -0.000000
vn -0.406139 0.913812 -0.000000
vn -0.406139 0.913812 -0.000000
vn -0.406139 0.913812 -0.000000
vn -0.919145 0.393919 -0.000000
vn -0.919145 0.393919 -0.000000
vn -0.919145 0.393919 -0.000000
vn -0.919145 0.393919 -0.000000
vn 0.224859 0.974391 0.000000
vn 0.224859 0.974391 0.000000
vn 0.224859 0.974391 0.000000
vn 0.224859 0.974391 0.000000
vn -0.507020 0.861934 -0.000000
vn -0.507020 0.861934 -0.000000
vn -0.507020 0.861934 -0.000000
vn -0.507020 0.861934 -0.000000
vn -0.757769 0.652523 -0.000000
vn -0.757769 0.652523 -0.000000
vn -0.757769 0.652523 -0.000000
vn -0.757769 0.652523 -0.000000
vn 0.097100 0.995275 0.000000
vn 0.097100 0.995275 0.000000
vn 0.097100 0.995275 0.000000
vn 0.097100 0.995275 0.000000
vn -0.605083 0.796162 -0.000000
vn -0.605083 0.796162 -0.000000
vn -0.605083 0.796162 -0.000000
vn -0.605083 0.796162 -0.000000
vn 0.832050 0.554701 0.000000
vn 0.832050 0.554701 0.000000
vn 0.832050 0.554701 0.000000
vn 0.832050 0.554701 0.000000
vn -0.000000 1.000000 0.000000
vn -0.000000 1.000000 0.000000
vn -0.000000 1.000000 0.000000
vn -0.000000 1.000000 0.000000
vn -0.668964 0.743295 -0.000000
vn -0.668964 0.743295 -0.000000
vn -0.668964 0.743295 -0.000000
vn -0.668964 0.743295 -0.000000
vn 0.883788 0.467888 0.000000
vn 0.883788 0.467888 0.000000
vn 0.883788 0.467888 0.000000
vn 0.883788 0.467888 0.000000
vn 0.542716 0.839917 0.000000
vn 0.542716 0.839917 0.000000
vn 0.542716 0.839917 0.000000
vn 0.542716 0.839917 0.000000
vn -0.316228 0.948683 -0.000000
vn -0.316228 0.948683 -0.000000
vn -0.316228 0.948683 -0.000000
vn -0.316228 0.948683 -0.000000
vn 0.536876 0.843661 0.000000
vn 0.536876 0.843661 0.000000
vn 0.536876 0.843661 0.000000
vn 0.536876 0.843661 0.000000
vn -0.802743 0.596325 -0.000000
vn -0.802743 0.596325 -0.000000
vn -0.802743 0.596325 -0.000000
vn -0.802743 0.596325 -0.000000
vn -0.999963 0.008547 -0.000000
vn -0.999963 0.008547 -0.000000
vn -0.999963 0.008547 -0.000000
vn -0.999963 0.008547 -0.000000
s off
g pPlane1
usemtl initialShadingGroup
f 1/1/1 2/2/2 4/4/3 3/3/4
f 4/5/5 2/6/6 5/7/7 6/8/8
f 6/9/9 5/10/10 7/11/11 8/12/12
f 8/13/13 7/14/14 9/15/15 10/16/16
f 10/17/17 9/18/18 11/19/19 12/20/20
f 12/21/21 11/22/22 13/23/23 14/24/24
f 14/25/25 13/26/26 15/27/27 16/28/28
f 16/29/29 15/30/30 17/31/31 18/32/32
f 18/33/33 17/34/34 19/35/35 20/36/36
f 20/37/37 19/38/38 21/39/39 22/40/40
f 22/41/41 21/42/42 23/43/43 24/44/44
f 24/45/45 23/46/46 25/47/47 26/48/48
f 26/49/49 25/50/50 27/51/51 28/52/52
f 28/53/53 27/54/54 29/55/55 30/56/56
f 30/57/57 29/58/58 31/59/59 32/60/60
f 32/61/61 31/62/62 33/63/63 34/64/64
f 34/65/65 33/66/66 35/67/67 36/68/68
f 36/69/69 35/70/70 37/71/71 38/72/72
f 38/73/73 37/74/74 39/75/75 40/76/76
f 40/77/77 39/78/78 41/79/79 42/80/80
f 42/81/81 41/82/82 43/83/83 44/84/84
f 44/85/85 43/86/86 45/87/87 46/88/88
f 46/89/89 45/90/90 47/91/91 48/92/92
f 48/93/93 47/94/94 49/95/95 50/96/96
f 50/97/97 49/98/98 51/99/99 52/100/100
