# This file uses centimeters as units for non-parametric coordinates.

mtllib Land3_Collider.mtl
g default
v 2.957557 0.091858 -0.995582
v 2.576484 0.246592 -0.995582
v 2.576484 0.246591 0.945158
v 2.957557 0.091858 0.945158
v 2.479636 0.768471 -0.995581
v 2.479636 0.768471 0.945159
v 2.065360 0.946018 -0.995581
v 2.065360 0.946018 0.945159
v 1.979695 1.003546 -0.995581
v 1.979695 1.003546 0.945159
v 1.931279 1.141551 -0.995581
v 1.931279 1.141551 0.945159
v 1.379728 1.683469 -0.995581
v 1.379728 1.683469 0.945159
v 0.823073 1.660994 -0.995581
v 0.823073 1.660994 0.945159
v 0.553964 1.295211 -0.995581
v 0.553964 1.295210 0.945159
v 0.585980 0.875975 -0.995581
v 0.585980 0.875974 0.945159
v 1.134317 0.461890 -0.995581
v 1.134317 0.461890 0.945159
v 1.376700 0.494082 -0.995581
v 1.376700 0.494081 0.945159
v 1.737174 0.117466 -0.995582
v 1.737174 0.117466 0.945158
v 1.618811 -0.119263 -0.995582
v 1.618811 -0.119263 0.945158
v 1.565235 -0.237949 -0.995582
v 1.565235 -0.237949 0.945158
v 1.140229 -0.749589 -0.995582
v 1.140229 -0.749589 0.945158
v 1.399554 -0.867372 -0.995582
v 1.399554 -0.867372 0.945158
v 0.408255 -0.829451 0.945158
v 0.408255 -0.829450 -0.995582
v 0.596564 -0.205347 -0.995582
v 0.596564 -0.205347 0.945158
v 0.279136 0.407997 -0.995581
v 0.279136 0.407997 0.945159
v -0.248117 0.833035 -0.995581
v -0.248117 0.833034 0.945159
v -0.447198 0.682388 -0.995581
v -0.447198 0.682388 0.945159
v -0.427790 1.246575 -0.995581
v -0.427790 1.246575 0.945159
v -0.112287 1.482977 -0.995581
v -0.112287 1.482976 0.945159
v -0.553239 2.394207 -0.995581
v -0.553239 2.394207 0.945159
v -1.012645 2.627546 -0.995581
v -1.012645 2.627546 0.945159
v -1.371353 2.080593 -0.995581
v -1.371353 2.080593 0.945159
v -1.376130 1.425069 -0.995581
v -1.376130 1.425069 0.945159
v -1.155172 1.263932 -0.995581
v -1.155172 1.263931 0.945159
v -1.329538 0.703907 -0.995581
v -1.329538 0.703907 0.945159
v -1.544747 0.445658 -0.995581
v -1.544747 0.445658 0.945159
v -1.980554 0.585543 -0.995581
v -1.980554 0.585543 0.945159
v -2.308740 0.590923 -0.995581
v -2.308740 0.590923 0.945159
v -2.454003 0.833033 -0.995581
v -2.454003 0.833032 0.945159
v -3.029687 1.128945 -0.995581
v -3.029687 1.128944 0.945159
v -3.029687 0.007824 -0.995581
v -3.029687 0.007824 0.945159
vt 0.000000 0.000000
vt 1.000000 0.000000
vt 1.000000 1.000000
vt 0.000000 1.000000
vt 0.000000 0.000000
vt 1.000000 1.000000
vt 0.000000 1.000000
vt 0.000000 0.000000
vt 1.000000 0.000000
vt 1.000000 1.000000
vt 0.000000 1.000000
vt 0.000000 0.000000
vt 1.000000 0.000000
vt 1.000000 1.000000
vt 0.000000 1.000000
vt 0.000000 0.000000
vt 1.000000 0.000000
vt 1.000000 1.000000
vt 0.000000 1.000000
vt 0.000000 0.000000
vt 1.000000 0.000000
vt 1.000000 1.000000
vt 0.000000 1.000000
vt 0.000000 0.000000
vt 1.000000 0.000000
vt 1.000000 1.000000
vt 0.000000 1.000000
vt 0.000000 0.000000
vt 1.000000 0.000000
vt 1.000000 1.000000
vt 0.000000 1.000000
vt 0.000000 0.000000
vt 1.000000 0.000000
vt 1.000000 1.000000
vt 0.000000 1.000000
vt 0.000000 0.000000
vt 1.000000 0.000000
vt 1.000000 1.000000
vt 0.000000 1.000000
vt 0.000000 0.000000
vt 1.000000 0.000000
vt 1.000000 1.000000
vt 0.000000 1.000000
vt 0.000000 0.000000
vt 1.000000 0.000000
vt 1.000000 1.000000
vt 0.000000 1.000000
vt 0.000000 0.000000
vt 1.000000 0.000000
vt 1.000000 1.000000
vt 0.000000 1.000000
vt 0.000000 0.000000
vt 1.000000 0.000000
vt 1.000000 1.000000
vt 0.000000 1.000000
vt 0.000000 0.000000
vt 1.000000 0.000000
vt 1.000000 1.000000
vt 0.000000 1.000000
vt 0.000000 0.000000
vt 1.000000 0.000000
vt 1.000000 1.000000
vt 0.000000 1.000000
vt 0.000000 0.000000
vt 1.000000 0.000000
vt 1.000000 1.000000
vt 0.000000 1.000000
vt 0.000000 0.000000
vt 1.000000 0.000000
vt 1.000000 1.000000
vt 0.000000 1.000000
vt 0.000000 0.000000
vt 1.000000 0.000000
vt 1.000000 1.000000
vt 0.000000 1.000000
vt 0.000000 0.000000
vt 1.000000 0.000000
vt 1.000000 1.000000
vt 0.000000 1.000000
vt 0.000000 0.000000
vt 1.000000 0.000000
vt 1.000000 1.000000
vt 0.000000 1.000000
vt 0.000000 0.000000
vt 1.000000 0.000000
vt 1.000000 1.000000
vt 0.000000 1.000000
vt 0.000000 0.000000
vt 1.000000 0.000000
vt 1.000000 1.000000
vt 0.000000 1.000000
vt 0.000000 0.000000
vt 1.000000 0.000000
vt 1.000000 1.000000
vt 0.000000 1.000000
vt 0.000000 0.000000
vt 1.000000 0.000000
vt 1.000000 1.000000
vt 0.000000 1.000000
vt 0.000000 0.000000
vt 1.000000 0.000000
vt 1.000000 1.000000
vt 0.000000 1.000000
vt 0.000000 0.000000
vt 1.000000 0.000000
vt 1.000000 1.000000
vt 0.000000 1.000000
vt 0.000000 0.000000
vt 1.000000 0.000000
vt 1.000000 1.000000
vt 0.000000 1.000000
vt 0.000000 0.000000
vt 1.000000 0.000000
vt 1.000000 1.000000
vt 0.000000 1.000000
vt 0.000000 0.000000
vt 1.000000 0.000000
vt 1.000000 1.000000
vt 0.000000 1.000000
vt 0.000000 0.000000
vt 1.000000 0.000000
vt 1.000000 1.000000
vt 0.000000 1.000000
vt 0.000000 0.000000
vt 1.000000 0.000000
vt 1.000000 1.000000
vt 0.000000 1.000000
vt 0.000000 0.000000
vt 1.000000 0.000000
vt 1.000000 1.000000
vt 0.000000 1.000000
vt 1.000000 1.000000
vt 0.000000 1.000000
vn 0.376213 0.926533 0.000000
vn 0.376213 0.926533 0.000000
vn 0.376213 0.926533 0.000000
vn 0.376213 0.926533 0.000000
vn 0.983206 0.182501 0.000000
vn 0.983206 0.182501 0.000000
vn 0.983206 0.182501 0.000000
vn 0.983206 0.182501 0.000000
vn 0.393919 0.919145 0.000000
vn 0.393919 0.919145 0.000000
vn 0.393919 0.919145 0.000000
vn 0.393919 0.919145 0.000000
vn -0.169197 0.985582 0.000000
vn -0.169197 0.985582 0.000000
vn -0.169197 0.985582 0.000000
vn -0.169197 0.985582 0.000000
vn 0.998584 0.053199 0.000000
vn 0.998584 0.053199 0.000000
vn 0.998584 0.053199 0.000000
vn 0.998584 0.053199 0.000000
vn 0.529999 0.847998 0.000000
vn 0.529999 0.847998 0.000000
vn 0.529999 0.847998 0.000000
vn 0.529999 0.847998 0.000000
vn -0.242512 0.970148 0.000000
vn -0.242512 0.970148 0.000000
vn -0.242512 0.970148 0.000000
vn -0.242512 0.970148 0.000000
vn -0.877425 0.479714 0.000000
vn -0.877425 0.479714 0.000000
vn -0.877425 0.479714 0.000000
vn -0.877425 0.479714 0.000000
vn -0.964194 -0.265198 0.000000
vn -0.964194 -0.265198 0.000000
vn -0.964194 -0.265198 0.000000
vn -0.964194 -0.265198 0.000000
vn -0.549381 -0.835572 0.000000
vn -0.549381 -0.835572 0.000000
vn -0.549381 -0.835572 0.000000
vn -0.549381 -0.835572 0.000000
vn 0.640204 -0.768205 0.000000
vn 0.640204 -0.768205 0.000000
vn 0.640204 -0.768205 0.000000
vn 0.640204 -0.768205 0.000000
vn -0.722388 -0.691488 0.000000
vn -0.722388 -0.691488 0.000000
vn -0.722388 -0.691488 0.000000
vn -0.722388 -0.691488 0.000000
vn -0.894427 0.447214 0.000000
vn -0.894427 0.447214 0.000000
vn -0.894427 0.447214 0.000000
vn -0.894427 0.447214 0.000000
vn 0.290007 0.957024 0.000000
vn 0.290007 0.957024 0.000000
vn 0.290007 0.957024 0.000000
vn 0.290007 0.957024 0.000000
vn -0.464411 0.885620 0.000000
vn -0.464411 0.885620 0.000000
vn -0.464411 0.885620 0.000000
vn -0.464411 0.885620 0.000000
vn -0.804822 0.593516 0.000000
vn -0.804822 0.593516 0.000000
vn -0.804822 0.593516 0.000000
vn -0.804822 0.593516 0.000000
vn 0.957363 -0.288889 0.000000
vn 0.957363 -0.288889 0.000000
vn 0.957363 -0.288889 0.000000
vn 0.957363 -0.288889 0.000000
vn 0.888121 0.459611 0.000000
vn 0.888121 0.459611 0.000000
vn 0.888121 0.459611 0.000000
vn 0.888121 0.459611 0.000000
vn 0.627618 0.778522 0.000000
vn 0.627618 0.778522 0.000000
vn 0.627618 0.778522 0.000000
vn 0.627618 0.778522 0.000000
vn -0.603419 0.797425 0.000000
vn -0.603419 0.797425 0.000000
vn -0.603419 0.797425 0.000000
vn -0.603419 0.797425 0.000000
vn 0.998419 0.056201 0.000000
vn 0.998419 0.056201 0.000000
vn 0.998419 0.056201 0.000000
vn 0.998419 0.056201 0.000000
vn 0.018501 -0.999829 0.000000
vn 0.018501 -0.999829 0.000000
vn 0.018501 -0.999829 0.000000
vn 0.018501 -0.999829 0.000000
vn 0.983868 -0.178894 0.000000
vn 0.983868 -0.178894 0.000000
vn 0.983868 -0.178894 0.000000
vn 0.983868 -0.178894 0.000000
vn 0.937638 0.347614 0.000000
vn 0.937638 0.347614 0.000000
vn 0.937638 0.347614 0.000000
vn 0.937638 0.347614 0.000000
vn -0.431625 0.902053 0.000000
vn -0.431625 0.902053 0.000000
vn -0.431625 0.902053 0.000000
vn -0.431625 0.902053 0.000000
vn -0.879564 0.475781 0.000000
vn -0.879564 0.475781 0.000000
vn -0.879564 0.475781 0.000000
vn -0.879564 0.475781 0.000000
vn -0.946878 -0.321593 0.000000
vn -0.946878 -0.321593 0.000000
vn -0.946878 -0.321593 0.000000
vn -0.946878 -0.321593 0.000000
vn -0.957837 0.287311 0.000000
vn -0.957837 0.287311 0.000000
vn -0.957837 0.287311 0.000000
vn -0.957837 0.287311 0.000000
vn -0.768205 0.640204 0.000000
vn -0.768205 0.640204 0.000000
vn -0.768205 0.640204 0.000000
vn -0.768205 0.640204 0.000000
vn 0.305588 0.952164 0.000000
vn 0.305588 0.952164 0.000000
vn 0.305588 0.952164 0.000000
vn 0.305588 0.952164 0.000000
vn 0.016399 0.999866 0.000000
vn 0.016399 0.999866 0.000000
vn 0.016399 0.999866 0.000000
vn 0.016399 0.999866 0.000000
vn 0.857493 0.514496 0.000000
vn 0.857493 0.514496 0.000000
vn 0.857493 0.514496 0.000000
vn 0.857493 0.514496 0.000000
vn 0.457185 0.889372 0.000000
vn 0.457185 0.889372 0.000000
vn -0.520981 0.853568 0.000000
vn -0.520981 0.853568 0.000000
vn -0.520981 0.853568 0.000000
vn -0.520981 0.853568 0.000000
vn -1.000000 0.000000 0.000000
vn -1.000000 0.000000 0.000000
s off
g Land3_Collider:Mesh
usemtl Land3_Collider:initialShadingGroup
f 1/1/1 2/2/2 3/3/3 4/4/4
f 3/5/5 2/2/6 5/6/7 6/7/8
f 6/8/9 5/9/10 7/10/11 8/11/12
f 8/12/13 7/13/14 9/14/15 10/15/16
f 10/16/17 9/17/18 11/18/19 12/19/20
f 12/20/21 11/21/22 13/22/23 14/23/24
f 14/24/25 13/25/26 15/26/27 16/27/28
f 16/28/29 15/29/30 17/30/31 18/31/32
f 18/32/33 17/33/34 19/34/35 20/35/36
f 20/36/37 19/37/38 21/38/39 22/39/40
f 22/40/41 21/41/42 23/42/43 24/43/44
f 24/44/45 23/45/46 25/46/47 26/47/48
f 26/48/49 25/49/50 27/50/51 28/51/52
f 28/52/53 27/53/54 29/54/55 30/55/56
f 30/56/57 29/57/58 31/58/59 32/59/60
f 32/60/61 31/61/62 33/62/63 34/63/64
f 35/64/65 36/65/66 37/66/67 38/67/68
f 38/68/69 37/69/70 39/70/71 40/71/72
f 40/72/73 39/73/74 41/74/75 42/75/76
f 42/76/77 41/77/78 43/78/79 44/79/80
f 44/80/81 43/81/82 45/82/83 46/83/84
f 46/84/85 45/85/86 47/86/87 48/87/88
f 48/88/89 47/89/90 49/90/91 50/91/92
f 50/92/93 49/93/94 51/94/95 52/95/96
f 52/96/97 51/97/98 53/98/99 54/99/100
f 54/100/101 53/101/102 55/102/103 56/103/104
f 56/104/105 55/105/106 57/106/107 58/107/108
f 58/108/109 57/109/110 59/110/111 60/111/112
f 60/112/113 59/113/114 61/114/115 62/115/116
f 62/116/117 61/117/118 63/118/119 64/119/120
f 64/120/121 63/121/122 65/122/123 66/123/124
f 66/124/125 65/125/126 67/126/127 68/127/128
f 68/128/129 67/129/130 69/130/131 70/131/132
f 70/131/133 69/130/134 71/132/135 72/133/136
