# This file uses meters as units for non-parametric coordinates.

mtllib Land1_Collider.mtl
g default
v -249.103157 1.718233 -0.974074
v -249.329422 1.738866 -0.974074
v -249.103157 1.718233 0.974074
v -249.329422 1.738866 0.974074
v -249.358220 2.161241 -0.974074
v -249.358220 2.161241 0.974074
v -249.943785 2.286033 -0.974074
v -249.943785 2.286033 0.974074
v -250.279766 2.478022 -0.974074
v -250.279766 2.478022 0.974074
v -250.682942 2.401226 -0.974074
v -250.682942 2.401226 0.974074
v -250.855732 2.257235 -0.974074
v -250.855732 2.257235 0.974074
v -251.594888 2.343630 -0.974074
v -251.594888 2.343630 0.974074
v -251.902070 2.142042 -0.974074
v -251.902070 2.142042 0.974074
v -252.113257 1.815661 -0.974074
v -252.113257 1.815661 0.974074
v -253.044402 1.873258 -0.974074
v -253.044402 1.873258 0.974074
v -253.495576 1.556476 -0.974074
v -253.495576 1.556476 0.974074
v -253.716363 1.546877 -0.974074
v -253.716363 1.546877 0.974074
v -253.341985 2.113243 -0.974074
v -253.341985 2.113243 0.974074
v -253.437979 2.305232 -0.974074
v -253.437979 2.305232 0.974074
v -253.725962 2.334030 -0.974074
v -253.725962 2.334030 0.974074
v -254.455519 1.921254 -0.974074
v -254.455519 1.921254 0.974074
v -254.561113 1.700467 -0.974074
v -254.561113 1.700467 0.974074
v -255.089082 1.719666 -0.974074
v -255.089082 1.719666 0.974074
vt 0.000000 0.000000
vt 1.000000 0.000000
vt 0.000000 1.000000
vt 1.000000 1.000000
vt 0.000000 0.000000
vt 1.000000 0.000000
vt 1.000000 1.000000
vt 0.000000 1.000000
vt 0.000000 0.000000
vt 1.000000 0.000000
vt 1.000000 1.000000
vt 0.000000 1.000000
vt 0.000000 0.000000
vt 1.000000 0.000000
vt 1.000000 1.000000
vt 0.000000 1.000000
vt 0.000000 0.000000
vt 1.000000 0.000000
vt 1.000000 1.000000
vt 0.000000 1.000000
vt 0.000000 0.000000
vt 1.000000 0.000000
vt 1.000000 1.000000
vt 0.000000 1.000000
vt 0.000000 0.000000
vt 1.000000 0.000000
vt 1.000000 1.000000
vt 0.000000 1.000000
vt 0.000000 0.000000
vt 1.000000 0.000000
vt 1.000000 1.000000
vt 0.000000 1.000000
vt 0.000000 0.000000
vt 1.000000 0.000000
vt 1.000000 1.000000
vt 0.000000 1.000000
vt 0.000000 0.000000
vt 1.000000 0.000000
vt 1.000000 1.000000
vt 0.000000 1.000000
vt 0.000000 0.000000
vt 1.000000 0.000000
vt 1.000000 1.000000
vt 0.000000 1.000000
vt 0.000000 0.000000
vt 1.000000 0.000000
vt 1.000000 1.000000
vt 0.000000 1.000000
vt 0.000000 0.000000
vt 1.000000 0.000000
vt 1.000000 1.000000
vt 0.000000 1.000000
vt 0.000000 0.000000
vt 1.000000 0.000000
vt 1.000000 1.000000
vt 0.000000 1.000000
vt 0.000000 0.000000
vt 1.000000 0.000000
vt 1.000000 1.000000
vt 0.000000 1.000000
vt 0.000000 0.000000
vt 1.000000 0.000000
vt 1.000000 1.000000
vt 0.000000 1.000000
vt 0.000000 0.000000
vt 1.000000 0.000000
vt 1.000000 1.000000
vt 0.000000 1.000000
vt 0.000000 0.000000
vt 1.000000 0.000000
vt 1.000000 1.000000
vt 0.000000 1.000000
vn 0.090812 0.995868 0.000000
vn 0.090812 0.995868 0.000000
vn 0.090812 0.995868 0.000000
vn 0.090812 0.995868 0.000000
vn 0.997684 0.068024 0.000000
vn 0.997684 0.068024 0.000000
vn 0.997684 0.068024 0.000000
vn 0.997684 0.068024 0.000000
vn 0.208434 0.978036 0.000000
vn 0.208434 0.978036 0.000000
vn 0.208434 0.978036 0.000000
vn 0.208434 0.978036 0.000000
vn 0.496139 0.868243 0.000000
vn 0.496139 0.868243 0.000000
vn 0.496139 0.868243 0.000000
vn 0.496139 0.868243 0.000000
vn -0.187112 0.982339 -0.000000
vn -0.187112 0.982339 -0.000000
vn -0.187112 0.982339 -0.000000
vn -0.187112 0.982339 -0.000000
vn -0.640184 0.768221 -0.000000
vn -0.640184 0.768221 -0.000000
vn -0.640184 0.768221 -0.000000
vn -0.640184 0.768221 -0.000000
vn 0.116093 0.993238 0.000000
vn 0.116093 0.993238 0.000000
vn 0.116093 0.993238 0.000000
vn 0.116093 0.993238 0.000000
vn -0.548656 0.836048 -0.000000
vn -0.548656 0.836048 -0.000000
vn -0.548656 0.836048 -0.000000
vn -0.548656 0.836048 -0.000000
vn -0.839570 0.543251 -0.000000
vn -0.839570 0.543251 -0.000000
vn -0.839570 0.543251 -0.000000
vn -0.839570 0.543251 -0.000000
vn 0.061738 0.998092 0.000000
vn 0.061738 0.998092 0.000000
vn 0.061738 0.998092 0.000000
vn 0.061738 0.998092 0.000000
vn -0.574630 0.818413 -0.000000
vn -0.574630 0.818413 -0.000000
vn -0.574630 0.818413 -0.000000
vn -0.574630 0.818413 -0.000000
vn -0.043437 0.999056 -0.000000
vn -0.043437 0.999056 -0.000000
vn -0.043437 0.999056 -0.000000
vn -0.043437 0.999056 -0.000000
vn 0.834219 -0.551433 0.000000
vn 0.834219 -0.551433 0.000000
vn 0.834219 -0.551433 0.000000
vn 0.834219 -0.551433 0.000000
vn 0.894427 0.447213 0.000000
vn 0.894427 0.447213 0.000000
vn 0.894427 0.447213 0.000000
vn 0.894427 0.447213 0.000000
vn 0.099504 0.995037 0.000000
vn 0.099504 0.995037 0.000000
vn 0.099504 0.995037 0.000000
vn 0.099504 0.995037 0.000000
vn -0.492434 0.870350 -0.000000
vn -0.492434 0.870350 -0.000000
vn -0.492434 0.870350 -0.000000
vn -0.492434 0.870350 -0.000000
vn -0.902134 0.431456 -0.000000
vn -0.902134 0.431456 -0.000000
vn -0.902134 0.431456 -0.000000
vn -0.902134 0.431456 -0.000000
vn 0.036340 0.999340 0.000000
vn 0.036340 0.999340 0.000000
vn 0.036340 0.999340 0.000000
vn 0.036340 0.999340 0.000000
s off
g pPlane1
usemtl initialShadingGroup
f 1/1/1 2/2/2 4/4/3 3/3/4
f 4/5/5 2/6/6 5/7/7 6/8/8
f 6/9/9 5/10/10 7/11/11 8/12/12
f 8/13/13 7/14/14 9/15/15 10/16/16
f 10/17/17 9/18/18 11/19/19 12/20/20
f 12/21/21 11/22/22 13/23/23 14/24/24
f 14/25/25 13/26/26 15/27/27 16/28/28
f 16/29/29 15/30/30 17/31/31 18/32/32
f 18/33/33 17/34/34 19/35/35 20/36/36
f 20/37/37 19/38/38 21/39/39 22/40/40
f 22/41/41 21/42/42 23/43/43 24/44/44
f 24/45/45 23/46/46 25/47/47 26/48/48
f 26/49/49 25/50/50 27/51/51 28/52/52
f 28/53/53 27/54/54 29/55/55 30/56/56
f 30/57/57 29/58/58 31/59/59 32/60/60
f 32/61/61 31/62/62 33/63/63 34/64/64
f 34/65/65 33/66/66 35/67/67 36/68/68
f 36/69/69 35/70/70 37/71/71 38/72/72
