# This file uses meters as units for non-parametric coordinates.

mtllib Land3_Collider.mtl
g default
v -249.593402 -28.856931 -0.970370
v -249.974471 -28.702198 -0.970370
v -249.593402 -28.856931 0.970370
v -249.974471 -28.702198 0.970370
v -250.071314 -28.180318 -0.970370
v -250.071314 -28.180318 0.970370
v -250.485590 -28.002771 -0.970370
v -250.485590 -28.002771 0.970370
v -251.018231 -28.094235 -0.970370
v -251.018231 -28.094235 0.970370
v -251.066653 -27.184981 -0.970370
v -251.066653 -27.184981 0.970370
v -251.583152 -26.862168 -0.970370
v -251.583152 -26.862168 0.970370
v -252.013569 -26.969772 -0.970370
v -252.013569 -26.969772 0.970370
v -252.234157 -27.373288 -0.970370
v -252.234157 -27.373288 0.970370
v -252.056611 -28.018913 -0.970370
v -252.056611 -28.018913 0.970370
v -251.271101 -28.535412 -0.970370
v -251.271101 -28.535412 0.970370
v -251.174257 -28.454709 -0.970370
v -251.174257 -28.454709 0.970370
v -250.813783 -28.831324 -0.970370
v -250.813783 -28.831324 0.970370
v -250.932148 -29.068053 -0.970370
v -250.932148 -29.068053 0.970370
v -251.109695 -29.014251 -0.970370
v -251.109695 -29.014251 0.970370
v -251.550872 -29.245600 -0.970370
v -251.550872 -29.245600 0.970370
v -251.868304 -29.676016 -0.970370
v -251.868304 -29.676016 0.970370
v -252.142694 -29.778240 -0.970370
v -252.142694 -29.778240 0.970370
v -251.954387 -29.154136 -0.970370
v -251.954387 -29.154136 0.970370
v -252.271819 -28.540792 -0.970370
v -252.271819 -28.540792 0.970370
v -252.799079 -28.115756 -0.970370
v -252.799079 -28.115756 0.970370
v -252.998147 -28.266402 -0.970370
v -252.998147 -28.266402 0.970370
v -253.041189 -27.502413 -0.970370
v -253.041189 -27.502413 0.970370
v -252.750658 -27.497033 -0.970370
v -252.750658 -27.497033 0.970370
v -252.567731 -26.490935 -0.970370
v -252.567731 -26.490935 0.970370
v -252.745277 -26.012097 -0.970370
v -252.745277 -26.012097 0.970370
v -253.622251 -26.431753 -0.970370
v -253.622251 -26.431753 0.970370
v -253.799797 -26.759945 -0.970370
v -253.799797 -26.759945 0.970370
v -253.606110 -27.330247 -0.970370
v -253.606110 -27.330247 0.970370
v -253.880500 -28.244882 -0.970370
v -253.880500 -28.244882 0.970370
v -254.095709 -28.503132 -0.970370
v -254.095709 -28.503132 0.970370
v -254.531505 -28.363246 -0.970370
v -254.531505 -28.363246 0.970370
v -254.859698 -28.357866 -0.970370
v -254.859698 -28.357866 0.970370
v -255.004963 -28.115757 -0.970370
v -255.004963 -28.115757 0.970370
v -255.580645 -27.819846 -0.970370
v -255.580645 -27.819846 0.970370
vt 0.000000 0.000000
vt 1.000000 0.000000
vt 0.000000 1.000000
vt 1.000000 1.000000
vt 0.000000 0.000000
vt 1.000000 0.000000
vt 1.000000 1.000000
vt 0.000000 1.000000
vt 0.000000 0.000000
vt 1.000000 0.000000
vt 1.000000 1.000000
vt 0.000000 1.000000
vt 0.000000 0.000000
vt 1.000000 0.000000
vt 1.000000 1.000000
vt 0.000000 1.000000
vt 0.000000 0.000000
vt 1.000000 0.000000
vt 1.000000 1.000000
vt 0.000000 1.000000
vt 0.000000 0.000000
vt 1.000000 0.000000
vt 1.000000 1.000000
vt 0.000000 1.000000
vt 0.000000 0.000000
vt 1.000000 0.000000
vt 1.000000 1.000000
vt 0.000000 1.000000
vt 0.000000 0.000000
vt 1.000000 0.000000
vt 1.000000 1.000000
vt 0.000000 1.000000
vt 0.000000 0.000000
vt 1.000000 0.000000
vt 1.000000 1.000000
vt 0.000000 1.000000
vt 0.000000 0.000000
vt 1.000000 0.000000
vt 1.000000 1.000000
vt 0.000000 1.000000
vt 0.000000 0.000000
vt 1.000000 0.000000
vt 1.000000 1.000000
vt 0.000000 1.000000
vt 0.000000 0.000000
vt 1.000000 0.000000
vt 1.000000 1.000000
vt 0.000000 1.000000
vt 0.000000 0.000000
vt 1.000000 0.000000
vt 1.000000 1.000000
vt 0.000000 1.000000
vt 0.000000 0.000000
vt 1.000000 0.000000
vt 1.000000 1.000000
vt 0.000000 1.000000
vt 0.000000 0.000000
vt 1.000000 0.000000
vt 1.000000 1.000000
vt 0.000000 1.000000
vt 0.000000 0.000000
vt 1.000000 0.000000
vt 1.000000 1.000000
vt 0.000000 1.000000
vt 0.000000 0.000000
vt 1.000000 0.000000
vt 1.000000 1.000000
vt 0.000000 1.000000
vt 0.000000 0.000000
vt 1.000000 0.000000
vt 1.000000 1.000000
vt 0.000000 1.000000
vt 0.000000 0.000000
vt 1.000000 0.000000
vt 1.000000 1.000000
vt 0.000000 1.000000
vt 0.000000 0.000000
vt 1.000000 0.000000
vt 1.000000 1.000000
vt 0.000000 1.000000
vt 0.000000 0.000000
vt 1.000000 0.000000
vt 1.000000 1.000000
vt 0.000000 1.000000
vt 0.000000 0.000000
vt 1.000000 0.000000
vt 1.000000 1.000000
vt 0.000000 1.000000
vt 0.000000 0.000000
vt 1.000000 0.000000
vt 1.000000 1.000000
vt 0.000000 1.000000
vt 0.000000 0.000000
vt 1.000000 0.000000
vt 1.000000 1.000000
vt 0.000000 1.000000
vt 0.000000 0.000000
vt 1.000000 0.000000
vt 1.000000 1.000000
vt 0.000000 1.000000
vt 0.000000 0.000000
vt 1.000000 0.000000
vt 1.000000 1.000000
vt 0.000000 1.000000
vt 0.000000 0.000000
vt 1.000000 0.000000
vt 1.000000 1.000000
vt 0.000000 1.000000
vt 0.000000 0.000000
vt 1.000000 0.000000
vt 1.000000 1.000000
vt 0.000000 1.000000
vt 0.000000 0.000000
vt 1.000000 0.000000
vt 1.000000 1.000000
vt 0.000000 1.000000
vt 0.000000 0.000000
vt 1.000000 0.000000
vt 1.000000 1.000000
vt 0.000000 1.000000
vt 0.000000 0.000000
vt 1.000000 0.000000
vt 1.000000 1.000000
vt 0.000000 1.000000
vt 0.000000 0.000000
vt 1.000000 0.000000
vt 1.000000 1.000000
vt 0.000000 1.000000
vt 0.000000 0.000000
vt 1.000000 0.000000
vt 1.000000 1.000000
vt 0.000000 1.000000
vn 0.376217 0.926531 0.000000
vn 0.376217 0.926531 0.000000
vn 0.376217 0.926531 0.000000
vn 0.376217 0.926531 0.000000
vn 0.983215 0.182452 0.000000
vn 0.983215 0.182452 0.000000
vn 0.983215 0.182452 0.000000
vn 0.983215 0.182452 0.000000
vn 0.393919 0.919145 0.000000
vn 0.393919 0.919145 0.000000
vn 0.393919 0.919145 0.000000
vn 0.393919 0.919145 0.000000
vn -0.169240 0.985575 -0.000000
vn -0.169240 0.985575 -0.000000
vn -0.169240 0.985575 -0.000000
vn -0.169240 0.985575 -0.000000
vn 0.998585 0.053179 0.000000
vn 0.998585 0.053179 0.000000
vn 0.998585 0.053179 0.000000
vn 0.998585 0.053179 0.000000
vn 0.529999 0.847998 0.000000
vn 0.529999 0.847998 0.000000
vn 0.529999 0.847998 0.000000
vn 0.529999 0.847998 0.000000
vn -0.242535 0.970143 -0.000000
vn -0.242535 0.970143 -0.000000
vn -0.242535 0.970143 -0.000000
vn -0.242535 0.970143 -0.000000
vn -0.877448 0.479672 -0.000000
vn -0.877448 0.479672 -0.000000
vn -0.877448 0.479672 -0.000000
vn -0.877448 0.479672 -0.000000
vn -0.964205 -0.265157 -0.000000
vn -0.964205 -0.265157 -0.000000
vn -0.964205 -0.265157 -0.000000
vn -0.964205 -0.265157 -0.000000
vn -0.549406 -0.835555 -0.000000
vn -0.549406 -0.835555 -0.000000
vn -0.549406 -0.835555 -0.000000
vn -0.549406 -0.835555 -0.000000
vn 0.640184 -0.768221 0.000000
vn 0.640184 -0.768221 0.000000
vn 0.640184 -0.768221 0.000000
vn 0.640184 -0.768221 0.000000
vn -0.722418 -0.691457 -0.000000
vn -0.722418 -0.691457 -0.000000
vn -0.722418 -0.691457 -0.000000
vn -0.722418 -0.691457 -0.000000
vn -0.894427 0.447214 -0.000000
vn -0.894427 0.447214 -0.000000
vn -0.894427 0.447214 -0.000000
vn -0.894427 0.447214 -0.000000
vn 0.290007 0.957024 0.000000
vn 0.290007 0.957024 0.000000
vn 0.290007 0.957024 0.000000
vn 0.290007 0.957024 0.000000
vn -0.464410 0.885620 -0.000000
vn -0.464410 0.885620 -0.000000
vn -0.464410 0.885620 -0.000000
vn -0.464410 0.885620 -0.000000
vn -0.804803 0.593542 -0.000000
vn -0.804803 0.593542 -0.000000
vn -0.804803 0.593542 -0.000000
vn -0.804803 0.593542 -0.000000
vn 0.957371 -0.288862 0.000000
vn 0.957371 -0.288862 0.000000
vn 0.957371 -0.288862 0.000000
vn 0.957371 -0.288862 0.000000
vn 0.888108 0.459635 0.000000
vn 0.888108 0.459635 0.000000
vn 0.888108 0.459635 0.000000
vn 0.888108 0.459635 0.000000
vn 0.627597 0.778538 0.000000
vn 0.627597 0.778538 0.000000
vn 0.627597 0.778538 0.000000
vn 0.627597 0.778538 0.000000
vn -0.603443 0.797406 -0.000000
vn -0.603443 0.797406 -0.000000
vn -0.603443 0.797406 -0.000000
vn -0.603443 0.797406 -0.000000
vn 0.998417 0.056249 0.000000
vn 0.998417 0.056249 0.000000
vn 0.998417 0.056249 0.000000
vn 0.998417 0.056249 0.000000
vn 0.018516 -0.999829 0.000000
vn 0.018516 -0.999829 0.000000
vn 0.018516 -0.999829 0.000000
vn 0.018516 -0.999829 0.000000
vn 0.983870 -0.178886 0.000000
vn 0.983870 -0.178886 0.000000
vn 0.983870 -0.178886 0.000000
vn 0.983870 -0.178886 0.000000
vn 0.937622 0.347657 0.000000
vn 0.937622 0.347657 0.000000
vn 0.937622 0.347657 0.000000
vn 0.937622 0.347657 0.000000
vn -0.431651 0.902040 -0.000000
vn -0.431651 0.902040 -0.000000
vn -0.431651 0.902040 -0.000000
vn -0.431651 0.902040 -0.000000
vn -0.879544 0.475818 -0.000000
vn -0.879544 0.475818 -0.000000
vn -0.879544 0.475818 -0.000000
vn -0.879544 0.475818 -0.000000
vn -0.946882 -0.321582 -0.000000
vn -0.946882 -0.321582 -0.000000
vn -0.946882 -0.321582 -0.000000
vn -0.946882 -0.321582 -0.000000
vn -0.957826 0.287348 -0.000000
vn -0.957826 0.287348 -0.000000
vn -0.957826 0.287348 -0.000000
vn -0.957826 0.287348 -0.000000
vn -0.768221 0.640184 -0.000000
vn -0.768221 0.640184 -0.000000
vn -0.768221 0.640184 -0.000000
vn -0.768221 0.640184 -0.000000
vn 0.305629 0.952151 0.000000
vn 0.305629 0.952151 0.000000
vn 0.305629 0.952151 0.000000
vn 0.305629 0.952151 0.000000
vn 0.016391 0.999866 0.000000
vn 0.016391 0.999866 0.000000
vn 0.016391 0.999866 0.000000
vn 0.016391 0.999866 0.000000
vn 0.857493 0.514496 0.000000
vn 0.857493 0.514496 0.000000
vn 0.857493 0.514496 0.000000
vn 0.857493 0.514496 0.000000
vn 0.457160 0.889384 0.000000
vn 0.457160 0.889384 0.000000
vn 0.457160 0.889384 0.000000
vn 0.457160 0.889384 0.000000
s off
g pPlane1
usemtl initialShadingGroup
f 1/1/1 2/2/2 4/4/3 3/3/4
f 4/5/5 2/6/6 5/7/7 6/8/8
f 6/9/9 5/10/10 7/11/11 8/12/12
f 8/13/13 7/14/14 9/15/15 10/16/16
f 10/17/17 9/18/18 11/19/19 12/20/20
f 12/21/21 11/22/22 13/23/23 14/24/24
f 14/25/25 13/26/26 15/27/27 16/28/28
f 16/29/29 15/30/30 17/31/31 18/32/32
f 18/33/33 17/34/34 19/35/35 20/36/36
f 20/37/37 19/38/38 21/39/39 22/40/40
f 22/41/41 21/42/42 23/43/43 24/44/44
f 24/45/45 23/46/46 25/47/47 26/48/48
f 26/49/49 25/50/50 27/51/51 28/52/52
f 28/53/53 27/54/54 29/55/55 30/56/56
f 30/57/57 29/58/58 31/59/59 32/60/60
f 32/61/61 31/62/62 33/63/63 34/64/64
f 36/65/65 35/66/66 37/67/67 38/68/68
f 38/69/69 37/70/70 39/71/71 40/72/72
f 40/73/73 39/74/74 41/75/75 42/76/76
f 42/77/77 41/78/78 43/79/79 44/80/80
f 44/81/81 43/82/82 45/83/83 46/84/84
f 46/85/85 45/86/86 47/87/87 48/88/88
f 48/89/89 47/90/90 49/91/91 50/92/92
f 50/93/93 49/94/94 51/95/95 52/96/96
f 52/97/97 51/98/98 53/99/99 54/100/100
f 54/101/101 53/102/102 55/103/103 56/104/104
f 56/105/105 55/106/106 57/107/107 58/108/108
f 58/109/109 57/110/110 59/111/111 60/112/112
f 60/113/113 59/114/114 61/115/115 62/116/116
f 62/117/117 61/118/118 63/119/119 64/120/120
f 64/121/121 63/122/122 65/123/123 66/124/124
f 66/125/125 65/126/126 67/127/127 68/128/128
f 68/129/129 67/130/130 69/131/131 70/132/132
