# This file uses centimeters as units for non-parametric coordinates.

mtllib Land8_Collider.mtl
g default
v -3.009888 -0.000000 1.004198
v -2.453249 0.809133 1.004198
v -3.009888 0.000000 -1.004198
v -2.453249 0.809133 -1.004198
v -1.544359 1.108402 1.004198
v -1.544359 1.108402 -1.004198
v -0.214278 1.163822 1.004198
v -0.214278 1.163822 -1.004198
v 2.601063 0.598537 1.004198
v 2.601063 0.598537 -1.004198
v 2.999723 0.339408 1.004198
v 2.999723 0.339408 -1.004198
v 2.999723 -0.059253 1.004198
v 2.999723 -0.059253 -1.004198
vt 0.000000 0.000000
vt 1.000000 0.000000
vt 0.000000 1.000000
vt 1.000000 1.000000
vt 0.000000 0.000000
vt 1.000000 0.000000
vt 1.000000 1.000000
vt 0.000000 1.000000
vt 0.000000 0.000000
vt 1.000000 0.000000
vt 1.000000 1.000000
vt 0.000000 1.000000
vt 0.000000 0.000000
vt 1.000000 0.000000
vt 1.000000 1.000000
vt 0.000000 1.000000
vt 0.000000 0.000000
vt 1.000000 0.000000
vt 1.000000 1.000000
vt 0.000000 1.000000
vt 0.000000 0.000000
vt 1.000000 0.000000
vt 1.000000 1.000000
vt 0.000000 1.000000
vn -0.823871 0.566778 0.000000
vn -0.823871 0.566778 0.000000
vn -0.823871 0.566778 0.000000
vn -0.823871 0.566778 0.000000
vn -0.312751 0.949835 0.000000
vn -0.312751 0.949835 0.000000
vn -0.312751 0.949835 0.000000
vn -0.312751 0.949835 0.000000
vn -0.041631 0.999133 0.000000
vn -0.041631 0.999133 0.000000
vn 0.122075 0.992521 0.000000
vn 0.122075 0.992521 0.000000
vn 0.248463 0.968641 0.000000
vn 0.248463 0.968641 0.000000
vn 0.544988 0.838444 0.000000
vn 0.544988 0.838444 0.000000
vn 1.000000 0.000000 0.000000
vn 1.000000 0.000000 0.000000
vn 1.000000 0.000000 0.000000
vn 1.000000 0.000000 0.000000
s off
g pPlane1
usemtl initialShadingGroup
f 1/1/1 2/2/2 4/4/3 3/3/4
f 4/5/5 2/6/6 5/7/7 6/8/8
s 1
f 6/9/9 5/10/10 7/11/11 8/12/12
f 8/13/12 7/14/11 9/15/13 10/16/14
f 10/17/14 9/18/13 11/19/15 12/20/16
s off
f 12/21/17 11/22/18 13/23/19 14/24/20
